<svg width="24" height="24" viewBox="0 0 24 24" fill="none" stroke="black" stroke-width="2" stroke-linecap="round" stroke-linejoin="round" xmlns="http://www.w3.org/2000/svg">
<path d="M14 22V8H22V22H14ZM14 22V2H2V22H14ZM14 22V16H18V22L14 22ZM20 7.99998V5.99998M17.5 12.5V11.5H18.5V12.5H17.5ZM5.49997 18.5V17.5H6.49997V18.5H5.49997ZM9.5 18.5V17.5H10.5V18.5H9.5ZM5.49997 14.5V13.5H6.49997V14.5H5.49997ZM9.5 14.5V13.5H10.5V14.5H9.5ZM5.49997 10.5V9.5H6.49997V10.5H5.49997ZM9.5 10.5V9.5H10.5V10.5H9.5ZM5.49997 6.50001V5.50001H6.49997V6.50001H5.49997ZM9.5 6.50001V5.50001H10.5V6.50001H9.5Z"/>
</svg>
