<svg width="24" height="24" viewBox="0 0 24 24" fill="none" stroke="black" stroke-width="2" stroke-linecap="round" stroke-linejoin="round" xmlns="http://www.w3.org/2000/svg">
<path d="M16.5454 20.3636V18.5454C16.5454 16.5371 14.9174 14.9091 12.9091 14.9091H5.63636C3.62805 14.9091 2 16.5371 2 18.5454V20.3636M22 20.3636V18.5454C21.9988 16.8883 20.8773 15.4416 19.2727 15.0273M15.6363 4.11819C17.2454 4.53016 18.3707 5.97999 18.3707 7.64091C18.3707 9.30182 17.2454 10.7517 15.6363 11.1636M9.27275 11.2727C11.2811 11.2727 12.9091 9.64466 12.9091 7.63636C12.9091 5.62805 11.2811 4 9.27275 4C7.26444 4 5.63639 5.62805 5.63639 7.63636C5.63639 9.64466 7.26444 11.2727 9.27275 11.2727Z"/>
</svg>
