<svg width="1em" height="1em" stroke="#0B588A" fill="none" viewBox="0 0 24 24" version="1.1" xmlns="http://www.w3.org/2000/svg" xmlns:xlink="http://www.w3.org/1999/xlink">
<path d="M15.2222 14.2222V13.7222C14.9461 13.7222 14.7222 13.9461 14.7222 14.2222H15.2222ZM23 14.2222H23.5C23.5 13.9461 23.2761 13.7222 23 13.7222V14.2222ZM23 22V22.5C23.2761 22.5 23.5 22.2761 23.5 22H23ZM15.2222 22H14.7222C14.7222 22.2761 14.9461 22.5 15.2222 22.5V22ZM15.2222 2V1.5C14.9461 1.5 14.7222 1.72386 14.7222 2H15.2222ZM23 2H23.5C23.5 1.72386 23.2761 1.5 23 1.5V2ZM23 9.77778V10.2778C23.2761 10.2778 23.5 10.0539 23.5 9.77778H23ZM15.2222 9.77778H14.7222C14.7222 10.0539 14.9461 10.2778 15.2222 10.2778V9.77778ZM1 2V1.5C0.723858 1.5 0.5 1.72386 0.5 2H1ZM8.77778 2H9.27778C9.27778 1.72386 9.05392 1.5 8.77778 1.5V2ZM8.77778 9.77778V10.2778C9.05392 10.2778 9.27778 10.0539 9.27778 9.77778H8.77778ZM1 9.77778H0.5C0.5 10.0539 0.723858 10.2778 1 10.2778V9.77778ZM12 18.5H11.5C11.5 18.7761 11.7239 19 12 19V18.5ZM15.2222 14.7222H23V13.7222H15.2222V14.7222ZM22.5 14.2222V22H23.5V14.2222H22.5ZM23 21.5H15.2222V22.5H23V21.5ZM15.7222 22V14.2222H14.7222V22H15.7222ZM15.2222 2.5H23V1.5H15.2222V2.5ZM22.5 2V9.77778H23.5V2H22.5ZM23 9.27778H15.2222V10.2778H23V9.27778ZM15.7222 9.77778V2H14.7222V9.77778H15.7222ZM1 2.5H8.77778V1.5H1V2.5ZM8.27778 2V9.77778H9.27778V2H8.27778ZM8.77778 9.27778H1V10.2778H8.77778V9.27778ZM1.5 9.77778V2H0.5V9.77778H1.5ZM8.77778 6.5H12V5.5H8.77778V6.5ZM12 6.5H15.2222V5.5H12V6.5ZM11.5 6V18.5H12.5V6H11.5ZM12 19H15.2222V18H12V19Z"/>
</svg>
